<svg width="48" height="48" viewBox="0 0 48 48" fill="none" xmlns="http://www.w3.org/2000/svg">
<path d="M32.6934 42.1931C31.2269 42.1822 29.7668 41.9981 28.3434 41.6447C23.4281 40.4587 18.3666 37.4503 14.0934 33.1734C9.82031 28.8965 6.80812 23.834 5.62218 18.9234C4.37343 13.7578 5.26406 9.33841 8.12718 6.47529L8.94468 5.65779C9.68639 4.91756 10.6915 4.50183 11.7394 4.50183C12.7873 4.50183 13.7923 4.91756 14.5341 5.65779L19.2319 10.3547C19.9726 11.0961 20.3886 12.1013 20.3886 13.1494C20.3886 14.1974 19.9726 15.2026 19.2319 15.944L16.4569 18.7181C17.7872 21.0525 19.5966 23.3887 21.735 25.5272C23.8734 27.6656 26.2116 29.4759 28.545 30.8062L31.3191 28.0312C31.686 27.6641 32.1217 27.3729 32.6012 27.1743C33.0807 26.9756 33.5947 26.8733 34.1137 26.8733C34.6328 26.8733 35.1468 26.9756 35.6263 27.1743C36.1058 27.3729 36.5415 27.6641 36.9084 28.0312L41.6053 32.7281C42.3462 33.4693 42.7623 34.4744 42.7623 35.5223C42.7623 36.5703 42.3462 37.5753 41.6053 38.3165L40.7869 39.134C38.7684 41.1562 35.9747 42.1931 32.6934 42.1931ZM11.7394 7.31248C11.5897 7.31173 11.4414 7.34087 11.3031 7.39818C11.1648 7.45549 11.0393 7.53982 10.9341 7.64623L10.1156 8.46373C7.97156 10.6078 7.3453 14.0887 8.35218 18.2597C9.41812 22.6781 12.1622 27.269 16.0781 31.184C19.9941 35.099 24.5841 37.8403 29.0034 38.91C33.1753 39.9169 36.6544 39.2906 38.7984 37.1465L39.6159 36.329C39.8295 36.1153 39.9495 35.8254 39.9495 35.5233C39.9495 35.2211 39.8295 34.9312 39.6159 34.7175L34.92 30.0206C34.7062 29.807 34.4164 29.687 34.1142 29.687C33.812 29.687 33.5222 29.807 33.3084 30.0206L29.7919 33.5372C29.5809 33.7483 29.3082 33.8868 29.0132 33.9326C28.7183 33.9785 28.4164 33.9293 28.1512 33.7922C25.2684 32.3015 22.3622 30.1312 19.7466 27.5156C17.1309 24.9 14.9653 21.9956 13.4709 19.1128C13.3337 18.8478 13.2843 18.5459 13.33 18.251C13.3757 17.956 13.514 17.6833 13.725 17.4722L17.2425 13.9556C17.4561 13.7418 17.5761 13.452 17.5761 13.1498C17.5761 12.8476 17.4561 12.5578 17.2425 12.344L12.5456 7.64623C12.44 7.54 12.3144 7.4558 12.176 7.39851C12.0376 7.34122 11.8892 7.31197 11.7394 7.31248Z" fill="black"/>
<path d="M34.1953 25.2872C33.8224 25.2872 33.4647 25.139 33.2009 24.8753C32.9372 24.6116 32.7891 24.2539 32.7891 23.8809C32.7863 21.4139 31.8052 19.0487 30.0608 17.3042C28.3165 15.5597 25.9514 14.5783 23.4844 14.5753C23.1114 14.5753 22.7537 14.4272 22.49 14.1634C22.2263 13.8997 22.0781 13.542 22.0781 13.1691C22.0781 12.7961 22.2263 12.4384 22.49 12.1747C22.7537 11.911 23.1114 11.7628 23.4844 11.7628C30.1659 11.7628 35.6016 17.2003 35.6016 23.8809C35.6016 24.2539 35.4534 24.6116 35.1897 24.8753C34.926 25.139 34.5683 25.2872 34.1953 25.2872Z" fill="black"/>
<path d="M40.1391 25.2872C39.7661 25.2872 39.4084 25.1391 39.1447 24.8753C38.881 24.6116 38.7328 24.2539 38.7328 23.881C38.7328 15.4725 31.8891 8.63159 23.4844 8.63159C23.1114 8.63159 22.7537 8.48343 22.49 8.21971C22.2263 7.95599 22.0781 7.5983 22.0781 7.22534C22.0781 6.85238 22.2263 6.4947 22.49 6.23097C22.7537 5.96725 23.1114 5.81909 23.4844 5.81909C33.4434 5.81909 41.5453 13.9219 41.5453 23.881C41.5453 24.2539 41.3972 24.6116 41.1334 24.8753C40.8697 25.1391 40.512 25.2872 40.1391 25.2872Z" fill="black"/>
</svg>
