<svg width="40" height="67" viewBox="0 0 40 67" fill="none" xmlns="http://www.w3.org/2000/svg">
<path d="M4.01853 66.9999C3.49272 67.0028 2.97147 66.9089 2.48469 66.7237C1.9979 66.5385 1.55515 66.2656 1.18182 65.9207C0.807343 65.5748 0.510112 65.1632 0.307272 64.7097C0.104433 64.2562 0 63.7698 0 63.2786C0 62.7873 0.104433 62.3009 0.307272 61.8474C0.510112 61.3939 0.807343 60.9823 1.18182 60.6364L30.348 33.5076L1.18182 6.37877C0.42948 5.67803 0.0068204 4.72761 0.0068204 3.7366C0.0068204 3.2459 0.110584 2.76001 0.312191 2.30667C0.513799 1.85332 0.809301 1.4414 1.18182 1.09442C1.55434 0.74745 1.99659 0.472215 2.48331 0.284433C2.97004 0.0966511 3.49171 0 4.01853 0C5.08251 0 6.1029 0.393677 6.85524 1.09442L38.8182 30.8654C39.1927 31.2114 39.4899 31.6229 39.6927 32.0764C39.8956 32.5299 40 33.0163 40 33.5076C40 33.9988 39.8956 34.4853 39.6927 34.9387C39.4899 35.3922 39.1927 35.8038 38.8182 36.1498L6.85524 65.9207C6.48192 66.2656 6.03917 66.5385 5.55238 66.7237C5.06559 66.9089 4.54435 67.0028 4.01853 66.9999Z" fill="#F0E3CA"/>
</svg>
