<svg width="40" height="67" viewBox="0 0 40 67" fill="none" xmlns="http://www.w3.org/2000/svg">
<path d="M35.9815 6.10352e-05C36.5073 -0.00276947 37.0285 0.0911026 37.5153 0.276299C38.0021 0.461487 38.4448 0.73436 38.8182 1.07926C39.1927 1.42522 39.4899 1.8368 39.6927 2.29028C39.8956 2.74377 40 3.23017 40 3.72144C40 4.2127 39.8956 4.69911 39.6927 5.15259C39.4899 5.60608 39.1927 6.01766 38.8182 6.36361L9.652 33.4924L38.8182 60.6212C39.5705 61.322 39.9932 62.2724 39.9932 63.2634C39.9932 63.7541 39.8894 64.24 39.6878 64.6933C39.4862 65.1467 39.1907 65.5586 38.8182 65.9056C38.4457 66.2526 38.0034 66.5278 37.5167 66.7156C37.03 66.9033 36.5083 67 35.9815 67C34.9175 67 33.8971 66.6063 33.1448 65.9056L1.18182 36.1346C0.807346 35.7886 0.510105 35.3771 0.307266 34.9236C0.104427 34.4701 0 33.9837 0 33.4924C0 33.0012 0.104427 32.5147 0.307266 32.0613C0.510105 31.6078 0.807346 31.1962 1.18182 30.8502L33.1448 1.07926C33.5181 0.73436 33.9608 0.461487 34.4476 0.276299C34.9344 0.0911026 35.4556 -0.00276947 35.9815 6.10352e-05Z" fill="#F0E3CA"/>
</svg>
